<svg xmlns="http://www.w3.org/2000/svg" width="37" height="24" viewBox="0 0 37 24">
    <g fill="none" fill-rule="evenodd">
        <path fill="#FFF" fill-rule="nonzero" d="M11 8a1.001 1.001 0 0 1-2 0 1.001 1.001 0 0 1 2 0z"/>
        <path fill="#002C76" d="M25.607 3C29.457 4.848 32 8.037 32 11.66 32 17.37 25.681 22 17.887 22c-4.993 0-9.38-1.9-11.888-4.766 2.218 1.065 4.87 1.684 7.72 1.684 7.794 0 14.112-4.63 14.112-10.341 0-2.046-.81-3.953-2.21-5.558z"/>
        <path fill="#FFF" d="M12.4 3c-.276 0-.4.224-.4.5s.124.5.4.5h8.3c.276 0 .3-.224.3-.5s-.024-.5-.3-.5h-8.3z"/>
        <path fill-rule="nonzero" stroke="#FFF" d="M16.29 21c6.567 0 12-3.627 12.694-8.634.014-.1.018-.735.015-1.305-.002-.46-.007-.878-.015-.943C28.416 5.008 22.95 1 16.291 1 10.584 1 5.754 3.944 4.13 8.002H2.076c-1.435 0-1.435 6.301 0 6.301h2.055C5.869 18.203 10.728 21 16.29 21z"/>
        <path fill-rule="nonzero" stroke="#FFF" stroke-linecap="round" stroke-linejoin="round" d="M6.702 18l-.678 2.691c-.102.648.124 1.043.678 1.184.554.142 1.737.495 3.55 1.062.73.191 1.184-.052 1.362-.73.178-.677.307-1.286.386-1.828M28.298 17l.678 2.691c.102.648-.124 1.043-.678 1.184-.554.142-1.737.495-3.55 1.062-.73.191-1.184-.052-1.362-.73A16.802 16.802 0 0 1 23 19.38M29 13.954c1.816.233 3.221-.416 4.217-1.946 1.033-1.587.14-3.05-.798-3.007-.42.019-1.66.273-1.392 2.084.271 1.83 4.973 2.799 4.973-1"/>
        <path fill="#FDC130" d="M20 13.695c0 .636-.2 1.158-.601 1.568-.401.41-.975.677-1.722.801V17h-1.285v-.876a9.246 9.246 0 0 1-.67-.06 17.03 17.03 0 0 1-1.721-.33l-.001-1.086c.959.192 1.765.288 2.42.288 1.092 0 1.638-.34 1.638-1.02a.81.81 0 0 0-.208-.56c-.138-.154-.37-.303-.698-.447l-1.43-.654c-.572-.268-.986-.568-1.242-.9-.255-.332-.383-.732-.383-1.2 0-.412.087-.773.262-1.085.176-.312.437-.567.785-.765.348-.198.764-.327 1.248-.387V7h1.285v.882c.452.028 1.123.146 2.012.354v1.086c-.816-.2-1.558-.3-2.226-.3-.972 0-1.458.292-1.458.875 0 .216.076.396.228.54.152.144.444.312.878.504l1.202.528c.59.256 1.019.56 1.286.912.267.352.401.79.401 1.314z"/>
    </g>
</svg>
