<svg xmlns="http://www.w3.org/2000/svg" width="203" height="192" viewBox="0 0 203 192">
    <g fill="none" fill-rule="evenodd" transform="translate(-6)">
        <path stroke="#FDC130" d="M172.39 88.965c-56.082 12.94-103.557 31.738-142.423 56.397-58.3 36.988 10.133 70.834 43.2 68.053"/>
        <path fill="#002C76" fill-rule="nonzero" d="M59 311.249l23.29 11.72 43.085.031-.213-29.708c-.057-7.664-.256-15.403-.17-22.993.084-7.59-2.007-14.918 2.03-22.223a50.437 50.437 0 0 1 12.311-13.565 320.389 320.389 0 0 1 21.2-16.425c6.925-4.88 14.544-8.683 20.043-15.173 16.606-19.844-8.147-51.594-30.746-37.35-22.598 14.243-43.967 33.582-57.997 56.377a70.654 70.654 0 0 0-8.971 21.572c-1.775 8.004-.496 15.01-.114 22.844l1.427 33.6S63.87 293.87 59 311.25z"/>
        <path fill="#002C76" fill-rule="nonzero" d="M134.762 347l26.164-1.349 38.074-21.6-14.363-26.108c-3.708-6.735-7.576-13.464-11.122-20.204-3.546-6.741-8.89-12.158-8.81-20.631a52.437 52.437 0 0 1 4.403-18.15 335.07 335.07 0 0 1 10.89-25.136c3.788-7.782 8.703-14.963 10.464-23.45 5.2-25.848-31.814-41.44-44.98-17.527-13.167 23.912-22.815 51.705-24.331 78.863a71.993 71.993 0 0 0 2.368 23.54c2.252 7.954 6.724 13.494 10.8 20.216l17.292 28.934s-20.84 4.82-16.85 22.602z"/>
        <path fill="#002C76" d="M130.043 102c-2.407-9.741-2.687-18.85-.84-27.326 2.77-12.714 4.47-19.954 13.992-27.66 9.523-7.705 31.528-8.374 39.268 11.347 7.74 19.721.939 41.835-3.015 39.806-3.954-2.03-19.911-5.874-32.922-3.713-8.674 1.44-14.169 3.956-16.483 7.546z"/>
        <path fill="#FDC130" fill-rule="nonzero" d="M163.76 97.026c-11.003-.39-21.689 3.71-29.708 11.402-8.019 7.691-12.714 18.342-13.052 29.609L203.98 141c.343-11.272-3.702-22.24-11.246-30.488-7.543-8.248-17.967-13.1-28.974-13.486z"/>
        <path stroke="#002256" stroke-linecap="round" stroke-linejoin="round" stroke-width=".855" d="M196.776 121s18.31 22.004 8.157 46.286c-8.924 21.32-26.758 37.018-31.075 40.618l-4.617 5.018c-1.896 1.287-2.976 1.422-3.241.404"/>
        <path stroke="#FFF" stroke-linecap="round" stroke-linejoin="round" stroke-width=".855" d="M190 190c-7.283 8.985-14.333 15.155-16.86 17.267a1437.488 1437.488 0 0 0-5.404 5.643c-.985 1.034-3.426 3.025-4.136 3.087-1.118.098-.282-2.296-.53-3.254"/>
        <path stroke="#002256" stroke-linecap="round" stroke-linejoin="round" stroke-width=".855" d="M175.197 123c3.375 6.198 5.905 11.742 7.591 16.632 2.53 7.334 2.57 15.42-14.788 34.368"/>
        <path stroke="#FFF" stroke-linecap="round" stroke-linejoin="round" stroke-width=".855" d="M176 164c-1.953 2.92-4.399 5.618-7.72 9.19-7.516 8.081-11.712 13.196-14.976 16.222-4.314 4-9.764 8.541-9.273 9.69 1.333 3.113 3.814 3.718 7.443 1.815"/>
        <path fill="#FFC6BB" fill-rule="nonzero" d="M150.072 55.194c-9.805 2.085-15.344 12.414-13.823 21.699 1.521 9.285 10.713 13.312 18.167 13.569l1.094 10.165c.24 2.68 2.267 4.863 4.941 5.321a4.768 4.768 0 0 0 2.744-.407l.11.003a6.54 6.54 0 0 0 3.693-6.049l-.76-27.068-.489-5.474a13.054 13.054 0 0 0-5.117-9.252 13.285 13.285 0 0 0-10.34-2.5l-.22-.007z"/>
        <path stroke="#002256" stroke-linecap="round" stroke-linejoin="round" stroke-width=".855" d="M121 138.411C102.118 145.966 88.205 151 80.45 151c-9.205 0-16.479-6.421-18.995-17.058-2.355-9.952 2.38-26.919 0-32.395-2.394-5.505-4.265-12.785-3.099-17.906.34-1.491 1.373-3.038 3.099-4.641"/>
        <path stroke="#002256" stroke-linecap="round" stroke-linejoin="round" stroke-width=".855" d="M122 120.377c-18.5 7.642-31.466 7.642-34.06 5.113-4.764-4.642-2.532-10.83-1.578-17.267.954-6.439 2.229-8.916 3.664-12.308.073-.171 3.7-7.158 3.767-7.317 2.091-4.986-4.772-3.916-6.5-1.985"/>
        <path fill="#FFF" d="M63.103 72.177l2.676 35.76a2 2 0 0 0 2.937 1.614l16.227-8.682A2 2 0 0 0 86 99.105V63.15a2 2 0 0 0-2.85-1.81l-18.903 8.879a2 2 0 0 0-1.144 1.96z"/>
        <path fill="#668ED1" d="M36.223 25.598l5.333 35.272a2 2 0 0 0 3.097 1.358l.283-.191 1.187-2.965 2.962 1.079.915-2.8 3.655.847 1.12-2.99 3.06.682 1.566-3.214 1.903.514a2 2 0 0 0 2.522-1.922l.16-37.107a2 2 0 0 0-2.848-1.82L37.352 23.488a2 2 0 0 0-1.129 2.11z"/>
        <path stroke="#0040A8" stroke-opacity=".424" stroke-width=".5" d="M44 55l17-6"/>
        <path fill="#D8E0EB" d="M17.223 61.598l5.333 35.272a2 2 0 0 0 3.097 1.358l.283-.191.707-2.44 3.442.554.915-2.613 3.327.767 1.448-3.098 3.06.683 1.566-3.214 1.903.514a2 2 0 0 0 2.522-1.922l.16-37.107a2 2 0 0 0-2.848-1.82L18.352 59.488a2 2 0 0 0-1.129 2.11z" opacity=".842"/>
        <path fill="#6680AD" d="M27.42 71.361l2.317-1.122c-.707-1.622-.511-2.726.588-3.311 1.65-.878 1.855.756 1.855 2.18 0 .948-1.068 4.913-3.204 11.892L36 78.415v-2.586l-3.075 1.035c1.532-5.32 2.298-8.632 2.298-9.936 0-1.957-1.437-5.06-5.376-3.508-2.626 1.034-3.436 3.681-2.428 7.941z" opacity=".6"/>
        <path fill="#FFF" d="M45 29.167L53.564 25l-2.81 8.804C52.919 33.732 54 35.07 54 37.819c0 4.123-1.644 6.046-4.885 7.028-1.083.329-1.893.122-2.074-.569a55.572 55.572 0 0 0-.521-1.755c3.117-.338 4.676-1.563 4.676-3.674 0-2.111-1.104-3.167-3.312-3.167l1.616-5.95-4.5 2.202v-2.767z" opacity=".6"/>
        <path fill="#0B2D72" fill-rule="nonzero" d="M147.618 49.98s-4.892 15.575 12.86 27.025L154.943 90s15.96-7.862 17.909-21.495c1.949-13.633-15.947-25.29-25.235-18.524z"/>
        <path stroke="#2674EA" stroke-linecap="round" stroke-width="1.46" d="M154 46s26.82 3.8 14.984 33"/>
        <path stroke="#002256" stroke-linecap="round" stroke-linejoin="round" stroke-width=".855" d="M62 78.955c2.573-1.551 7.484-1.11 6.961.589-.64 2.082-2.913 1.333-4.2 2.448-.316.274-.632.61-.95 1.008"/>
        <path stroke="#002256" stroke-linecap="round" stroke-linejoin="round" stroke-width=".855" d="M63 82.644c1.706-1.118 5.838-1.05 6 2.407.053 1.154-2.494.116-3.946.988-.447.268-1.132.922-2.054 1.961M64 88c4 .19 6 1.197 6 3.023 0 1.25-3.294.673-4.564 1.616-.39.29-.71 1.078-.96 2.361"/>
        <path stroke="#002256" stroke-linecap="round" stroke-linejoin="round" stroke-width=".855" d="M64 94.42c2.662-.725 4.311-.512 4.947.64.462.837-2.222.988-3.327 1.723-.34.226-.64.965-.898 2.217"/>
        <path fill="#0040A8" d="M72 81.75l2.04-4.554L78 75v16.585L75.591 93V80.53l-2.463 4.078z"/>
        <path d="M49 109.679l17.308-8.821"/>
        <path stroke="#002C76" stroke-linecap="round" d="M69.234 97.855l.314 4.145L85 94.487V65l-18 8.601v3.768"/>
        <ellipse cx="77.5" cy="102" fill="#D8D8D8" stroke="#002C76" rx="1.5" ry="2"/>
        <path stroke="#F2F2F2" stroke-width=".5" d="M26 90l17-6"/>
        <path fill="#E0E6EF" d="M72.683 56c-1.447-29.388-.594-45.086 2.558-47.095 4.727-3.013 52.302-12.013 53.73-7.803 1.428 4.21 3.745 22.043 0 26.898-3.744 4.855-32.349 8.155-41.123 10.476-5.85 1.548-10.904 7.39-15.165 17.524z"/>
        <circle cx="119" cy="20" r="3" fill="#FDC130"/>
        <circle cx="105" cy="20" r="3" fill="#FDC130"/>
        <circle cx="93" cy="22" r="3" fill="#FDC130"/>
    </g>
</svg>
